<?xml version="1.0" encoding="UTF-8" standalone="no"?>
<!-- Created with Inkscape (http://www.inkscape.org/) -->

<svg
   version="1.1"
   id="svg2"
   xml:space="preserve"
   width="273.09332"
   height="211.88"
   viewBox="0 0 273.09332 211.88"
   sodipodi:docname="logo.ai"
   xmlns:inkscape="http://www.inkscape.org/namespaces/inkscape"
   xmlns:sodipodi="http://sodipodi.sourceforge.net/DTD/sodipodi-0.dtd"
   xmlns="http://www.w3.org/2000/svg"
   xmlns:svg="http://www.w3.org/2000/svg"><defs
     id="defs6"><clipPath
       clipPathUnits="userSpaceOnUse"
       id="clipPath16"><path
         d="M 0,158.91 H 204.82 V 0 H 0 Z"
         id="path14" /></clipPath><clipPath
       clipPathUnits="userSpaceOnUse"
       id="clipPath24"><path
         d="M -337.156,600.695 H 1177.93 V -374.273 H -337.156 Z"
         id="path22" /></clipPath></defs><sodipodi:namedview
     id="namedview4"
     pagecolor="#ffffff"
     bordercolor="#666666"
     borderopacity="1.0"
     inkscape:pageshadow="2"
     inkscape:pageopacity="0.0"
     inkscape:pagecheckerboard="0" /><g
     id="g8"
     inkscape:groupmode="layer"
     inkscape:label="logo"
     transform="matrix(1.3333333,0,0,-1.3333333,0,211.88)"><g
       id="g10"><g
         id="g12"
         clip-path="url(#clipPath16)"><g
           id="g18"><g
             id="g20" /><g
             id="g30"><g
               clip-path="url(#clipPath24)"
               id="g28"><path
                 d="M 1177.926,-374.274 H -337.157 v 974.969 h 1515.083 z"
                 style="fill:#2b2b2b;fill-opacity:1;fill-rule:nonzero;stroke:none"
                 id="path26" /></g></g></g><g
           id="g32"
           transform="translate(311.5269,-100.3197)"><path
             d="m 0,0 h -422.941 c -4.942,0 -8.948,4.006 -8.948,8.947 v 341.031 c 0,4.941 4.006,8.947 8.948,8.947 H 0 c 4.941,0 8.947,-4.006 8.947,-8.947 V 8.947 C 8.947,4.006 4.941,0 0,0"
             style="fill:#ffffff;fill-opacity:1;fill-rule:nonzero;stroke:none"
             id="path34" /></g><g
           id="g36"
           transform="translate(40.6089,45.7887)"><path
             d="m 0,0 c 0,-0.821 -0.06,-1.63 -0.177,-2.418 -1.074,-7.31 -6.941,-13.061 -14.307,-13.957 H -29.609 V 9.374 h 4.743 v -21.007 h 10.064 c 4.885,0.707 8.805,4.43 9.81,9.215 0.163,0.78 0.25,1.59 0.25,2.418 0,0.796 -0.079,1.573 -0.231,2.324 -0.575,2.862 -2.194,5.35 -4.438,7.05 -1.844,1.397 -4.11,2.264 -6.572,2.371 h -13.626 v 4.76 h 13.299 l 10e-4,-0.008 C -8.069,16.405 -1.283,10.275 -0.164,2.324 -0.055,1.565 0,0.789 0,0"
             style="fill:#00b8a5;fill-opacity:1;fill-rule:nonzero;stroke:none"
             id="path38" /></g><path
           d="m 49.932,62.202 h -4.427 v -32.63 h 4.427 z M 45.348,29.414 h 4.741 V 62.36 h -4.741 z m 0,32.946 h 4.741 V 29.414 h -4.741 z"
           style="fill:#00b8a5;fill-opacity:1;fill-rule:nonzero;stroke:none"
           id="path40" /><g
           id="g42"
           transform="translate(85.8111,29.4137)"><path
             d="m 0,0 h -14.195 c -4.611,0 -8.786,1.811 -11.824,4.742 -3.083,2.972 -4.992,7.1 -4.992,11.663 0,4.564 1.909,8.692 4.992,11.663 3.038,2.933 7.213,4.743 11.824,4.743 H -0.063 V 28.068 H -15.86 c -5.933,-0.787 -10.519,-5.717 -10.519,-11.663 0,-5.945 4.586,-10.875 10.519,-11.663 h 11.118 v 10.449 h -9.368 l -2.19,4.743 H 0 Z"
             style="fill:#00b8a5;fill-opacity:1;fill-rule:nonzero;stroke:none"
             id="path44" /></g><path
           d="m 96.207,62.202 h -4.426 v -32.63 h 4.426 z M 91.623,29.414 h 4.742 V 62.36 h -4.742 z m 0,32.946 h 4.742 V 29.414 h -4.742 z"
           style="fill:#00b8a5;fill-opacity:1;fill-rule:nonzero;stroke:none"
           id="path46" /><path
           d="m 113.116,55.174 h 4.742 V 29.413 h -4.742 z m -12.041,7.114 h 29.331 v -4.743 h -29.331 z"
           style="fill:#00b8a5;fill-opacity:1;fill-rule:nonzero;stroke:none"
           id="path48" /><g
           id="g50"
           transform="translate(163.4966,29.4137)"><path
             d="m 0,0 h -6.266 l -11.998,21.68 -3.132,5.658 3.13,5.655 0.002,0.004 3.133,-5.659 z M -22.949,24.529 -19.833,18.845 -30.262,0 h -6.263 z"
             style="fill:#00b8a5;fill-opacity:1;fill-rule:nonzero;stroke:none"
             id="path52" /></g><g
           id="g54"
           transform="translate(193.8208,34.1559)"><path
             d="m 0,0 v -4.742 h -25.584 v 33.135 h 4.741 V 0 Z"
             style="fill:#00b8a5;fill-opacity:1;fill-rule:nonzero;stroke:none"
             id="path56" /></g><g
           id="g58"
           transform="translate(63.0523,23.1559)"><path
             d="m 0,0 v -12.156 h -1.757 v 5.629 h -7.145 v -5.629 h -1.756 V 0 h 1.756 v -4.771 h 7.145 V 0 Z"
             style="fill:#1d8cab;fill-opacity:1;fill-rule:nonzero;stroke:none"
             id="path60" /></g><g
           id="g62"
           transform="translate(82.3023,10.9997)"><path
             d="m 0,0 h -2.322 l -4.445,8.032 -1.16,2.096 1.159,2.096 10e-4,10e-4 1.162,-2.097 z M -8.502,9.087 -7.348,6.981 -11.211,0 h -2.321 z"
             style="fill:#1d8cab;fill-opacity:1;fill-rule:nonzero;stroke:none"
             id="path64" /></g><g
           id="g66"
           transform="translate(88.8238,19.5016)"><path
             d="M 0,0 1.756,-1.757 V -8.502 H 0 Z M 10.863,3.643 V -8.502 H 9.106 V -0.6 L 6.717,-2.99 6.142,-3.564 5.474,-4.232 1.756,-0.516 0,1.241 v 2.486 l 5.474,-5.475 z"
             style="fill:#1d8cab;fill-opacity:1;fill-rule:nonzero;stroke:none"
             id="path68" /></g><g
           id="g70"
           transform="translate(106.2036,19.5016)"><path
             d="M 0,0 1.757,-1.757 V -8.502 H 0 Z M 10.864,3.643 V -8.502 H 9.107 V -0.6 L 6.717,-2.99 6.143,-3.564 5.474,-4.232 1.757,-0.516 0,1.241 v 2.486 l 5.474,-5.475 z"
             style="fill:#1d8cab;fill-opacity:1;fill-rule:nonzero;stroke:none"
             id="path72" /></g><g
           id="g74"
           transform="translate(125.5445,12.7565)"><path
             d="M 0,0 H 9.015 V -1.757 H -1.757 V 7.788 H 0 V 5.653 H 7.835 V 3.896 L 0,3.896 Z M 9.015,8.667 H -1.756 v 1.757 H 9.015 Z"
             style="fill:#1d8cab;fill-opacity:1;fill-rule:nonzero;stroke:none"
             id="path76" /></g><g
           id="g78"
           transform="translate(148.1617,19.696)"><path
             d="m 0,0 c 0.503,0.496 0.873,1.1 1.086,1.763 h -6.398 v -3.014 h 2.264 c 0.603,0 1.187,0.122 1.724,0.355 C -0.837,-0.686 -0.389,-0.384 0,0 M 4.265,-8.696 H 2.207 l -3.51,5.757 -0.096,0.158 c -0.007,-0.002 -0.015,-0.005 -0.022,-0.007 -0.031,-0.009 -0.062,-0.018 -0.095,-0.025 -0.009,-0.002 -0.019,-0.005 -0.03,-0.008 -0.046,-0.012 -0.091,-0.023 -0.137,-0.033 -0.104,-0.024 -0.209,-0.045 -0.314,-0.063 -0.03,-0.006 -0.061,-0.011 -0.091,-0.015 -0.016,-0.003 -0.032,-0.005 -0.048,-0.007 -0.039,-0.006 -0.078,-0.012 -0.118,-0.017 -0.017,-0.002 -0.033,-0.004 -0.051,-0.006 -0.041,-0.006 -0.083,-0.011 -0.125,-0.015 -0.05,-0.004 -0.101,-0.009 -0.153,-0.012 -10e-4,0 -0.003,-0.001 -0.004,-0.001 -0.047,-0.004 -0.095,-0.007 -0.142,-0.009 -0.008,-10e-4 -0.016,-0.002 -0.025,-0.002 -0.034,-10e-4 -0.069,-0.002 -0.103,-0.004 -0.022,0 -0.043,-10e-4 -0.065,-10e-4 -0.042,-0.001 -0.083,-0.001 -0.126,-0.001 H -5.312 V -8.696 H -7.068 V 3.52 H 3.034 C 3.044,3.377 3.049,3.233 3.049,3.089 3.049,2.633 2.999,2.189 2.904,1.763 2.646,0.598 2.054,-0.441 1.234,-1.251 1.158,-1.325 1.08,-1.398 1,-1.47 0.973,-1.494 0.946,-1.518 0.919,-1.54 0.916,-1.544 0.913,-1.547 0.909,-1.549 0.874,-1.579 0.839,-1.608 0.803,-1.638 0.777,-1.658 0.752,-1.679 0.726,-1.699 0.708,-1.715 0.689,-1.729 0.671,-1.742 0.604,-1.795 0.535,-1.845 0.466,-1.895 0.433,-1.918 0.4,-1.94 0.366,-1.963 0.364,-1.964 0.363,-1.965 0.36,-1.966 0.33,-1.987 0.299,-2.008 0.268,-2.027 0.263,-2.031 0.258,-2.035 0.252,-2.038 0.241,-2.045 0.229,-2.052 0.218,-2.06 L 0.43,-2.406 Z"
             style="fill:#1d8cab;fill-opacity:1;fill-rule:nonzero;stroke:none"
             id="path80" /></g><g
           id="g82"
           transform="translate(110.771,83.8171)"><path
             d="m 0,0 c -1.15,0 -2.082,0.932 -2.082,2.082 0,1.149 0.932,2.082 2.082,2.082 1.149,0 2.082,-0.933 2.082,-2.082 C 2.082,0.932 1.149,0 0,0 m -50.396,31.944 c -0.706,0 -1.413,-10e-4 -2.119,-0.002 -0.728,0 -1.458,-0.001 -2.186,-0.001 -0.771,0 -1.541,0.001 -2.312,0.003 -0.343,0.002 -0.401,0.101 -0.402,0.397 -0.003,8.704 -0.004,17.893 0,27.313 0,0.369 0.061,0.43 0.435,0.431 1.444,10e-4 2.89,0.002 4.335,0.002 1.162,0 4.148,-0.001 5.317,-0.002 V 31.944 Z m 28.495,-20.101 c -1.151,0 -2.082,0.931 -2.082,2.082 0,1.149 0.931,2.082 2.082,2.082 1.149,0 2.082,-0.933 2.082,-2.082 0,-1.151 -0.933,-2.082 -2.082,-2.082 m 60.052,27.429 c -2.216,7.288 -6.422,13.117 -12.844,17.288 -4.308,2.796 -9.024,4.649 -14.015,5.709 -3.589,0.761 -7.235,1.569 -10.878,1.687 -7.808,0.254 -15.63,0.076 -23.446,0.071 -0.277,0 -0.554,-0.029 -0.81,-0.045 -0.782,-5.226 -4.59,-8.201 -8.475,-8.781 -2.791,-0.417 -5.329,0.254 -7.571,1.957 -2.261,1.719 -3.513,4.053 -3.904,6.875 h -0.799 c -4.131,0 -8.263,0.004 -12.394,0 -2.554,-0.003 -4.377,-1.825 -4.378,-4.377 -0.004,-9.105 -0.004,-18.211 0,-27.316 0.002,-2.495 1.841,-4.335 4.337,-4.344 2.211,-0.008 4.421,0 6.631,0 h 6.61 c 0.359,2.556 1.404,4.718 3.314,6.408 1.932,1.71 4.212,2.573 6.781,2.551 2.129,-0.017 4.086,-0.675 5.805,-1.961 2.324,-1.738 3.632,-4.086 4.043,-6.962 h 0.05 v -2.9 -2.277 -4.318 c -1.815,-0.744 -3.095,-2.528 -3.095,-4.612 0,-2.754 2.233,-4.986 4.986,-4.986 2.753,0 4.984,2.232 4.984,4.986 0,2.018 -1.2,3.756 -2.927,4.54 v 10.972 c -0.087,0.347 -0.18,0.679 -0.28,0.997 -0.17,0.545 -0.354,1.046 -0.543,1.502 l -0.134,0.044 c -0.945,2.466 -2.524,4.535 -4.719,6.176 -2.404,1.798 -5.142,2.723 -8.138,2.747 l -0.124,0.001 c -3.469,0 -6.687,-1.225 -9.305,-3.543 -0.154,-0.136 -0.304,-0.276 -0.451,-0.419 v 18.15 c 0.394,-0.377 0.813,-0.738 1.261,-1.077 2.516,-1.912 5.335,-2.883 8.376,-2.883 0.712,0 1.441,0.056 2.168,0.164 5.081,0.759 9.106,4.082 10.925,8.789 1.526,0.006 3.049,0.017 4.539,0.027 2.291,0.016 4.66,0.033 6.983,0.033 3.718,0 6.759,-0.043 9.571,-0.135 3.125,-0.102 6.314,-0.78 9.69,-1.498 l 0.497,-0.106 c 4.674,-0.992 8.941,-2.727 12.684,-5.158 4.752,-3.086 8.126,-7.157 10.253,-12.394 -2.417,1.998 -5.222,3.683 -8.492,5.11 -3.775,1.647 -7.408,2.514 -11.107,2.648 -0.225,0.008 -0.452,0.012 -0.674,0.012 C 7.507,48.624 2.815,45.989 0.293,41.497 0.292,41.496 0.292,41.495 0.291,41.495 -1.661,38.822 -2.055,30.434 -2.055,30.434 V 6.624 c -1.727,-0.783 -2.93,-2.521 -2.93,-4.542 0,-2.753 2.231,-4.985 4.985,-4.985 2.753,0 4.984,2.232 4.984,4.985 0,2.048 -1.235,3.807 -3,4.573 v 21.377 c 0,1.356 -0.003,2.614 0,3.873 0.006,2.283 0.341,4.507 1.24,6.617 1.742,4.094 5.603,6.321 10.442,6.144 3.391,-0.123 6.589,-0.976 9.673,-2.321 3.648,-1.592 6.979,-3.681 9.747,-6.571 0.688,-0.717 1.374,-1.354 2.324,-1.682 1.851,-0.641 3.154,0.09 3.25,2.035 0.052,1.04 -0.201,2.134 -0.509,3.145"
             style="fill:#1d8cab;fill-opacity:1;fill-rule:nonzero;stroke:none"
             id="path84" /></g><g
           id="g86"
           transform="translate(100.1324,74.3278)"><path
             d="m 0,0 c -1.15,0 -2.082,0.933 -2.082,2.082 0,1.15 0.932,2.082 2.082,2.082 1.149,0 2.082,-0.932 2.082,-2.082 C 2.082,0.933 1.149,0 0,0 M 1.974,6.66 V 60.778 H -1.975 V 6.66 c -1.77,-0.764 -3.01,-2.526 -3.01,-4.578 0,-2.753 2.231,-4.985 4.985,-4.985 2.753,0 4.984,2.232 4.984,4.985 0,2.052 -1.239,3.814 -3.01,4.578"
             style="fill:#00b8a5;fill-opacity:1;fill-rule:nonzero;stroke:none"
             id="path88" /></g></g></g></g></svg>
